Coordinates
version=1
nRows=32
nColumns=12
inDegrees=yes

Units are S.I. units (second, meters, Newtons, ...)
Angles are in degrees

endheader
time	SC_y	SC_z	SC_x	AC_y	AC_z	AC_x	GH_y	GH_z	GH_yy	EL_x	PS_y
       0.0              -36.25          25.13           72.6          60.07         -4.525         -5.759          112.0          67.85          120.8          27.53          112.3
   0.03976              -36.25          25.13          72.59          60.07         -4.524         -5.759          111.9          67.84          120.8          27.54          112.3
   0.07952              -36.25          25.12          72.58          60.07         -4.522         -5.759          111.9          67.83          120.8          27.55          112.3
    0.1193              -36.25          25.12          72.58          60.07         -4.521         -5.758          111.9          67.82          120.8          27.57          112.3
     0.159              -36.25          25.12          72.57          60.07         -4.519         -5.758          111.9          67.81          120.8          27.58          112.3
    0.1988              -36.25          25.12          72.56          60.07         -4.517         -5.757          111.8          67.79          120.8           27.6          112.3
    0.2386              -36.25          25.12          72.55          60.07         -4.515         -5.757          111.8          67.78          120.8          27.61          112.3
    0.2783              -36.25          25.12          72.54          60.08         -4.513         -5.756          111.8          67.77          120.8          27.63          112.3
    0.3181              -36.25          25.12          72.53          60.08         -4.511         -5.756          111.7          67.75          120.8          27.65          112.3
    0.3579              -36.25          25.11          72.52          60.08         -4.508         -5.755          111.7          67.73          120.8          27.67          112.3
    0.3976              -36.25          25.11          72.51          60.08         -4.505         -5.755          111.6          67.72          120.8          27.69          112.2
    0.4374              -36.25          25.11           72.5          60.08         -4.503         -5.754          111.6           67.7          120.8          27.71          112.2
    0.4771              -36.25          25.11          72.49          60.08           -4.5         -5.753          111.6          67.68          120.8          27.74          112.2
    0.5169              -36.25          25.11          72.47          60.08         -4.496         -5.753          111.5          67.66          120.8          27.77          112.2
    0.5567              -36.24           25.1          72.46          60.08         -4.493         -5.752          111.4          67.63          120.8           27.8          112.2
    0.5964              -36.24           25.1          72.44          60.09         -4.489         -5.751          111.4          67.61          120.8          27.83          112.1
    0.6362              -36.24           25.1          72.42          60.09         -4.485          -5.75          111.3          67.58          120.8          27.86          112.1
    0.6759              -36.24          25.09           72.4          60.09          -4.48         -5.749          111.2          67.55          120.8           27.9          112.1
    0.7157              -36.24          25.09          72.38          60.09         -4.475         -5.748          111.2          67.51          120.8          27.94          112.1
    0.7555              -36.24          25.08          72.36          60.09          -4.47         -5.746          111.1          67.48          120.8          27.99          112.0
    0.7952              -36.24          25.08          72.33           60.1         -4.464         -5.745          111.0          67.44          120.8          28.04          112.0
     0.835              -36.24          25.08           72.3           60.1         -4.457         -5.743          110.9          67.39          120.8          28.09          112.0
    0.8747              -36.24          25.07          72.27           60.1          -4.45         -5.742          110.8          67.34          120.8          28.15          111.9
    0.9145              -36.24          25.06          72.24           60.1         -4.442          -5.74          110.6          67.29          120.8          28.22          111.9
    0.9543              -36.24          25.06           72.2          60.11         -4.433         -5.738          110.5          67.23          120.8          28.29          111.8
     0.994              -36.24          25.05          72.16          60.11         -4.423         -5.735          110.3          67.16          120.7          28.38          111.8
     1.034              -36.23          25.04          72.11          60.12         -4.411         -5.733          110.1          67.09          120.7          28.47          111.7
     1.074              -36.23          25.03          72.06          60.12         -4.399          -5.73          109.9           67.0          120.7          28.57          111.7
     1.113              -36.23          25.02           72.0          60.13         -4.384         -5.726          109.7          66.91          120.7          28.69          111.6
     1.153              -36.23          25.01          71.93          60.13         -4.368         -5.723          109.4           66.8          120.7          28.83          111.5
     1.193              -36.23          24.99          71.85          60.14          -4.35         -5.718          109.1          66.67          120.7          28.98          111.4
     1.233              -36.22          24.98          71.76          60.15         -4.328         -5.713          108.8          66.53          120.7          29.15          111.3
